<svg width="259" height="28" viewBox="0 0 259 28" fill="none" xmlns="http://www.w3.org/2000/svg">
<path d="M247.875 9.28125C248.586 7.86719 249.859 6.69531 251.695 5.76562C253.047 6.48438 254.086 7.27344 254.812 8.13281C255.961 9.51562 256.656 11.5703 256.898 14.2969C256.977 15.2344 257.016 16.1406 257.016 17.0156C257.016 17.8906 257.031 18.4844 257.062 18.7969C257.094 19.1094 257.16 19.3477 257.262 19.5117C257.363 19.668 257.512 19.7734 257.707 19.8281C257.902 19.875 258.098 19.9141 258.293 19.9453C258.488 19.9766 258.625 19.9961 258.703 20.0039C258.789 20.0039 258.875 20.0117 258.961 20.0273V21H252.551V20.0273C252.996 19.9727 253.352 19.9219 253.617 19.875C253.883 19.8203 254.086 19.7227 254.227 19.582C254.453 19.3555 254.566 18.7266 254.566 17.6953V16.3359C254.566 14.5469 254.523 13.3086 254.438 12.6211C254.352 11.9258 254.242 11.3555 254.109 10.9102C253.984 10.457 253.812 10.0312 253.594 9.63281C253.164 8.88281 252.492 8.14453 251.578 7.41797C249.109 8.94141 247.875 11.0039 247.875 13.6055V17.5781C247.875 18.6094 247.949 19.2266 248.098 19.4297C248.254 19.6328 248.445 19.7656 248.672 19.8281C248.898 19.8828 249.207 19.9375 249.598 19.9922L249.902 20.0273V21H243.492V20.0391C243.539 20.0156 243.598 20.0039 243.668 20.0039C243.746 19.9961 243.883 19.9805 244.078 19.957C244.281 19.9258 244.488 19.8828 244.699 19.8281C244.918 19.7734 245.086 19.6797 245.203 19.5469C245.398 19.3359 245.496 18.8047 245.496 17.9531V9.59766C245.496 8.88672 245.406 8.45312 245.227 8.29688C245.047 8.13281 244.824 8.02734 244.559 7.98047C244.293 7.92578 243.938 7.88281 243.492 7.85156V6.84375H247.875V9.28125Z" fill="white"/>
<path d="M235.711 2.16797L237.844 0.0703125L239.93 2.16797L237.844 4.28906L235.711 2.16797ZM234.738 20.0273L235.148 19.9688C235.484 19.9219 235.758 19.875 235.969 19.8281C236.18 19.7734 236.344 19.6797 236.461 19.5469C236.664 19.3047 236.766 18.75 236.766 17.8828V9.9375C236.766 9.04688 236.672 8.51172 236.484 8.33203C236.297 8.14453 236.07 8.02734 235.805 7.98047C235.539 7.93359 235.184 7.89062 234.738 7.85156V6.84375H241.148V7.85156C240.703 7.89844 240.348 7.94531 240.082 7.99219C239.816 8.03906 239.613 8.12891 239.473 8.26172C239.246 8.47266 239.133 9.03125 239.133 9.9375V17.8828C239.133 18.7734 239.203 19.3008 239.344 19.4648C239.484 19.6289 239.656 19.7383 239.859 19.793C240.07 19.8477 240.348 19.9023 240.691 19.957L241.148 20.0273V21H234.738V20.0273Z" fill="white"/>
<path d="M223.031 9.02344C222.898 9.26562 222.832 9.54688 222.832 9.86719C222.832 10.1797 222.98 10.5586 223.277 11.0039L222.48 11.4844C221.559 11.3281 220.891 10.9414 220.477 10.3242C220.328 10.1133 220.254 9.83984 220.254 9.50391C220.254 9.16797 220.391 8.82031 220.664 8.46094C220.938 8.09375 221.32 7.77344 221.812 7.5C222.891 6.90625 224.25 6.60938 225.891 6.60938C228.562 6.60938 230.223 7.38281 230.871 8.92969C231.074 9.41406 231.176 9.94922 231.176 10.5352V17.8828C231.176 18.7891 231.262 19.3359 231.434 19.5234C231.605 19.7031 231.812 19.8203 232.055 19.875C232.305 19.9297 232.637 19.9766 233.051 20.0156V21H230.145C229.566 21 228.906 21.0312 228.164 21.0938C226.641 21.2344 225.469 21.3047 224.648 21.3047C223.828 21.3047 223.105 21.1953 222.48 20.9766C221.855 20.7578 221.344 20.4688 220.945 20.1094C220.172 19.4141 219.785 18.5273 219.785 17.4492C219.785 16.2852 220.461 15.2109 221.812 14.2266C223.438 13.0234 225.77 12.3906 228.809 12.3281V10.2773C228.809 8.65234 227.727 7.83984 225.562 7.83984C224.328 7.83984 223.484 8.23438 223.031 9.02344ZM228.809 13.5469H228.832L228.809 13.5352V13.5469ZM228.809 13.5469C224.582 13.7969 222.469 15.0977 222.469 17.4492C222.469 18.6914 223.098 19.4922 224.355 19.8516C224.746 19.9688 225.234 20.0273 225.82 20.0273C226.406 20.0273 226.902 19.9961 227.309 19.9336C227.723 19.8633 228.039 19.7422 228.258 19.5703C228.484 19.3984 228.633 19.1641 228.703 18.8672C228.773 18.5625 228.809 18.1719 228.809 17.6953V13.5469Z" fill="white"/>
<path d="M212.73 19.6641C211.715 20.7422 210.492 21.2812 209.062 21.2812C207.094 21.2812 205.559 20.5508 204.457 19.0898C203.473 17.7852 202.98 16.125 202.98 14.1094C202.98 12.0547 203.523 10.3281 204.609 8.92969C205.812 7.38281 207.516 6.60938 209.719 6.60938C210.344 6.60938 210.996 6.63281 211.676 6.67969C212.973 6.78125 213.781 6.83203 214.102 6.83203H217.137V7.82812C216.246 7.89062 215.707 8.01953 215.52 8.21484C215.332 8.40234 215.219 8.61719 215.18 8.85938C215.141 9.09375 215.121 9.39844 215.121 9.77344V20.4023C215.121 22.4336 214.562 24.1562 213.445 25.5703C212.234 27.1094 210.605 27.8789 208.559 27.8789C207.535 27.8789 206.547 27.6445 205.594 27.1758L206.051 25.9102C206.723 26.1758 207.477 26.3086 208.312 26.3086C209.148 26.3086 209.852 26.1367 210.422 25.793C211 25.457 211.461 25.0156 211.805 24.4688C212.422 23.4609 212.73 22.1133 212.73 20.4258V19.6641ZM205.641 14.1094C205.641 18.0234 206.812 19.9805 209.156 19.9805C210.172 19.9805 211.023 19.6523 211.711 18.9961C212.391 18.3477 212.73 17.5664 212.73 16.6523V10.2656C212.73 9.47656 212.602 8.94531 212.344 8.67188C211.844 8.14062 210.953 7.875 209.672 7.875C206.984 7.875 205.641 9.95312 205.641 14.1094Z" fill="white"/>
<path d="M184.383 20.0273C185.273 19.8711 185.777 19.7383 185.895 19.6289C186.02 19.5117 186.086 19.375 186.094 19.2188C186.102 19.0547 186.105 18.8281 186.105 18.5391L186.094 17.332V16.6992C186.094 12.5664 186.617 9.49219 187.664 7.47656C188.328 6.17969 189.324 5 190.652 3.9375C191.293 3.42969 192.012 2.91016 192.809 2.37891H192.82C194.562 3.54297 195.844 4.61719 196.664 5.60156C197.656 6.78125 198.367 8.20312 198.797 9.86719C199.234 11.5703 199.453 13.8398 199.453 16.6758V17.332L199.441 18.5156C199.441 18.8125 199.453 19.043 199.477 19.207C199.5 19.3711 199.57 19.5 199.688 19.5938C199.836 19.7266 200.367 19.8711 201.281 20.0273V21H194.848V20.0273C195.871 19.9102 196.484 19.7422 196.688 19.5234C196.852 19.3438 196.941 19.0742 196.957 18.7148C196.98 18.3555 196.992 18.0078 196.992 17.6719V14.8359H188.566V17.6719C188.566 18.1797 188.578 18.5781 188.602 18.8672C188.633 19.1484 188.719 19.3672 188.859 19.5234C189 19.6719 189.215 19.7773 189.504 19.8398C189.793 19.9023 190.199 19.9648 190.723 20.0273V21H184.383V20.0273ZM196.969 13.5234C196.953 11.5078 196.672 9.84375 196.125 8.53125C195.547 7.14844 194.441 5.64844 192.809 4.03125C191.707 5.13281 190.934 6.03906 190.488 6.75C190.051 7.45312 189.73 8.04688 189.527 8.53125C189.324 9.01562 189.156 9.51953 189.023 10.043C188.805 10.9648 188.66 12.125 188.59 13.5234H196.969Z" fill="white"/>
<path d="M160.805 20.0273L161.203 19.9688C161.914 19.875 162.344 19.7461 162.492 19.582C162.711 19.332 162.82 18.7656 162.82 17.8828V4.03125C162.82 3.14844 162.727 2.61719 162.539 2.4375C162.359 2.25781 162.137 2.14453 161.871 2.09766C161.605 2.04297 161.25 1.99609 160.805 1.95703V0.960938H167.227V1.95703C166.781 2.00391 166.426 2.05078 166.16 2.09766C165.895 2.14453 165.691 2.23438 165.551 2.36719C165.316 2.57812 165.199 3.13281 165.199 4.03125V17.8828C165.199 18.7734 165.27 19.3047 165.41 19.4766C165.559 19.6406 165.734 19.75 165.938 19.8047C166.148 19.8516 166.43 19.9023 166.781 19.957L167.227 20.0273V21H160.805V20.0273ZM166.02 13.3828L169.828 9.70312L170.133 9.42188C170.234 9.32812 170.332 9.23438 170.426 9.14062L170.684 8.85938C170.855 8.67188 170.941 8.51953 170.941 8.40234C170.941 8.27734 170.898 8.17969 170.812 8.10938C170.734 8.03125 170.629 7.97656 170.496 7.94531C170.277 7.88281 169.973 7.85156 169.582 7.85156V6.83203H175.793V7.78125C174.496 7.92188 173.418 8.42578 172.559 9.29297L168.973 12.9258L176.156 22.9336L175.359 23.6016L166.02 13.3828Z" fill="white"/>
<path d="M153.738 19.7812C155.285 19.7812 156.711 19.2773 158.016 18.2695L158.684 18.9141C157.77 20.0234 156.5 20.7578 154.875 21.1172C154.359 21.2266 153.844 21.2812 153.328 21.2812C151.305 21.2812 149.695 20.5312 148.5 19.0312C147.398 17.6328 146.848 15.9141 146.848 13.875C146.848 11.7578 147.406 10.0078 148.523 8.625C149.727 7.14844 151.344 6.41016 153.375 6.41016C154.375 6.41016 155.34 6.60938 156.27 7.00781C156.41 7.07031 156.512 7.10547 156.574 7.11328C157.082 6.98047 157.383 6.66406 157.477 6.16406H158.402V11.1797H157.43C157.008 8.82812 155.715 7.65234 153.551 7.65234C152.16 7.65234 151.117 8.29688 150.422 9.58594C149.82 10.6797 149.52 12.1172 149.52 13.8984C149.52 16.9531 150.445 18.8359 152.297 19.5469C152.711 19.7031 153.191 19.7812 153.738 19.7812Z" fill="white"/>
<path d="M135.141 9.02344C135.008 9.26562 134.941 9.54688 134.941 9.86719C134.941 10.1797 135.09 10.5586 135.387 11.0039L134.59 11.4844C133.668 11.3281 133 10.9414 132.586 10.3242C132.438 10.1133 132.363 9.83984 132.363 9.50391C132.363 9.16797 132.5 8.82031 132.773 8.46094C133.047 8.09375 133.43 7.77344 133.922 7.5C135 6.90625 136.359 6.60938 138 6.60938C140.672 6.60938 142.332 7.38281 142.98 8.92969C143.184 9.41406 143.285 9.94922 143.285 10.5352V17.8828C143.285 18.7891 143.371 19.3359 143.543 19.5234C143.715 19.7031 143.922 19.8203 144.164 19.875C144.414 19.9297 144.746 19.9766 145.16 20.0156V21H142.254C141.676 21 141.016 21.0312 140.273 21.0938C138.75 21.2344 137.578 21.3047 136.758 21.3047C135.938 21.3047 135.215 21.1953 134.59 20.9766C133.965 20.7578 133.453 20.4688 133.055 20.1094C132.281 19.4141 131.895 18.5273 131.895 17.4492C131.895 16.2852 132.57 15.2109 133.922 14.2266C135.547 13.0234 137.879 12.3906 140.918 12.3281V10.2773C140.918 8.65234 139.836 7.83984 137.672 7.83984C136.438 7.83984 135.594 8.23438 135.141 9.02344ZM140.918 13.5469H140.941L140.918 13.5352V13.5469ZM140.918 13.5469C136.691 13.7969 134.578 15.0977 134.578 17.4492C134.578 18.6914 135.207 19.4922 136.465 19.8516C136.855 19.9688 137.344 20.0273 137.93 20.0273C138.516 20.0273 139.012 19.9961 139.418 19.9336C139.832 19.8633 140.148 19.7422 140.367 19.5703C140.594 19.3984 140.742 19.1641 140.812 18.8672C140.883 18.5625 140.918 18.1719 140.918 17.6953V13.5469Z" fill="white"/>
<path d="M113.051 20.0273C113.949 19.9492 114.492 19.8164 114.68 19.6289C114.867 19.4336 114.98 19.2227 115.02 18.9961C115.059 18.7617 115.078 18.457 115.078 18.082V5.98828C115.078 5.23828 114.988 4.77734 114.809 4.60547C114.637 4.42578 114.414 4.30469 114.141 4.24219C113.875 4.17969 113.512 4.12891 113.051 4.08984V3.07031H116.098C116.613 3.07031 117.191 3.04297 117.832 2.98828C119.012 2.88672 120.047 2.83594 120.938 2.83594C121.836 2.83594 122.707 2.92969 123.551 3.11719C124.395 3.30469 125.086 3.57031 125.625 3.91406C126.672 4.57812 127.195 5.53125 127.195 6.77344C127.195 8.36719 126.594 9.625 125.391 10.5469C124.992 10.8516 124.52 11.0977 123.973 11.2852C126.301 11.6758 127.777 12.6211 128.402 14.1211C128.598 14.5898 128.695 15.1484 128.695 15.7969C128.695 16.4375 128.547 17.1055 128.25 17.8008C127.961 18.4883 127.508 19.0938 126.891 19.6172C125.539 20.7734 123.625 21.3516 121.148 21.3516C120.531 21.3516 119.852 21.3125 119.109 21.2344C117.742 21.0781 116.738 21 116.098 21H113.051V20.0273ZM117.457 17.5781C117.457 18.3594 117.648 18.9219 118.031 19.2656C118.578 19.75 119.633 19.9922 121.195 19.9922C122.977 19.9922 124.266 19.5938 125.062 18.7969C125.719 18.1406 126.047 17.2422 126.047 16.1016C126.047 14.4375 125.418 13.2656 124.16 12.5859C123.691 12.3281 123.223 12.1836 122.754 12.1523C122.285 12.1133 121.922 12.0859 121.664 12.0703L120.867 12.0234C120.594 12.0078 120.324 11.9961 120.059 11.9883C119.801 11.9727 119.555 11.957 119.32 11.9414V10.8398L121.746 10.6875C122.77 10.5859 123.52 10.1406 123.996 9.35156C124.363 8.75 124.547 7.96484 124.547 6.99609C124.547 6.07422 124.289 5.38281 123.773 4.92188C123.148 4.36719 122.078 4.08984 120.562 4.08984C118.734 4.08984 117.727 4.57812 117.539 5.55469C117.484 5.84375 117.457 6.15625 117.457 6.49219V17.5781Z" fill="white"/>
<path d="M98.0625 8.60156C98.125 8.19531 98.1562 7.74609 98.1562 7.25391C98.1562 6.75391 98.0781 6.32422 97.9219 5.96484C97.7734 5.59766 97.5469 5.28125 97.2422 5.01562C96.5859 4.42969 95.6562 4.13672 94.4531 4.13672C93.1172 4.13672 92.2266 4.6875 91.7812 5.78906C91.6094 6.21875 91.5234 6.73047 91.5234 7.32422C91.5234 7.91016 91.5898 8.40625 91.7227 8.8125C91.8555 9.21875 92.0469 9.56641 92.2969 9.85547C92.7969 10.4492 93.4766 10.7695 94.3359 10.8164V12.0352C92.5078 12.0352 91.3281 12.8594 90.7969 14.5078C90.6172 15.0469 90.5273 15.6523 90.5273 16.3242C90.5273 16.9961 90.6484 17.5625 90.8906 18.0234C91.1328 18.4844 91.4531 18.8672 91.8516 19.1719C92.6094 19.75 93.5703 20.0391 94.7344 20.0391C96.4219 20.0391 97.9102 19.5234 99.1992 18.4922L99.0469 13.957C99.0156 13.1367 98.9141 12.6406 98.7422 12.4688C98.5781 12.2969 98.3711 12.1836 98.1211 12.1289C97.8789 12.0742 97.5508 12.0273 97.1367 11.9883V11.0742H102.902V11.9883C102.184 12.0664 101.75 12.1875 101.602 12.3516C101.461 12.5078 101.371 12.707 101.332 12.9492C101.293 13.1914 101.266 13.5273 101.25 13.957L100.781 27.2812H99.5156L99.2578 20.168C98.1641 20.9258 96.5586 21.3047 94.4414 21.3047C92.3711 21.3047 90.75 20.8398 89.5781 19.9102C88.3984 18.9727 87.8086 17.6719 87.8086 16.0078C87.8086 14.7969 88.2266 13.7656 89.0625 12.9141C89.8047 12.1562 90.7656 11.6328 91.9453 11.3438C90.3828 10.875 89.3906 9.97656 88.9688 8.64844C88.8594 8.28125 88.8047 7.82422 88.8047 7.27734C88.8047 6.73047 88.918 6.18359 89.1445 5.63672C89.3711 5.08984 89.7188 4.61719 90.1875 4.21875C91.1797 3.35156 92.6016 2.91797 94.4531 2.91797C95.3984 2.91797 96.2969 3.07031 97.1484 3.375C97.7031 3.58594 98.0859 3.69141 98.2969 3.69141C98.7578 3.69141 99.1836 3.38672 99.5742 2.77734H100.699L99.1992 8.60156H98.0625Z" fill="white"/>
<path d="M76.5234 19.2539C75.4531 20.5742 73.8477 21.2344 71.707 21.2344C69.6445 21.2344 68.0312 20.5664 66.8672 19.2305C65.75 17.9414 65.1914 16.2383 65.1914 14.1211C65.1914 11.9414 65.8125 10.1406 67.0547 8.71875C68.2891 7.3125 69.8711 6.60938 71.8008 6.60938C73.2773 6.60938 74.4297 6.92188 75.2578 7.54688C76.0469 8.13281 76.4414 8.9375 76.4414 9.96094C76.4414 11.2812 75.8008 12.3945 74.5195 13.3008C73.0273 14.3555 70.7695 14.8945 67.7461 14.918C68.0195 18.1133 69.4648 19.7109 72.082 19.7109C73.7227 19.7109 74.9805 19.3359 75.8555 18.5859L76.5234 19.2539ZM67.7109 13.6641C70.4922 13.6094 72.375 12.9492 73.3594 11.6836C73.7188 11.2148 73.8984 10.6328 73.8984 9.9375C73.8984 9.03125 73.5078 8.40625 72.7266 8.0625C72.4219 7.92969 72.043 7.86328 71.5898 7.86328C71.1367 7.86328 70.7344 7.94531 70.3828 8.10938C70.0312 8.26562 69.7148 8.48438 69.4336 8.76562C69.1523 9.03906 68.9062 9.36328 68.6953 9.73828C68.4844 10.1055 68.3086 10.5039 68.168 10.9336C67.8789 11.8164 67.7266 12.7266 67.7109 13.6641Z" fill="white"/>
<path d="M59.8008 11.0977C60.2383 10.6758 60.457 10.0352 60.457 9.17578C60.457 8.75391 60.2578 8.42188 59.8594 8.17969C59.5234 7.98438 59.0117 7.88672 58.3242 7.88672C56.8398 7.88672 56.0977 8.37109 56.0977 9.33984V18.2461C56.0977 18.582 56.1289 18.8594 56.1914 19.0781C56.2617 19.2969 56.4141 19.4727 56.6484 19.6055C57.0547 19.8398 57.9922 19.9805 59.4609 20.0273V21H51.6328V20.0391L51.6562 20.0273C52.5781 19.9336 53.1289 19.8047 53.3086 19.6406C53.4961 19.4688 53.6094 19.2734 53.6484 19.0547C53.6953 18.8281 53.7188 18.5273 53.7188 18.1523V10.0312C53.7188 9.17969 53.6328 8.65234 53.4609 8.44922C53.2969 8.24609 53.0938 8.10547 52.8516 8.02734C52.6094 7.94922 52.2891 7.88672 51.8906 7.83984V6.84375H54.3164C55.2773 6.84375 55.9609 6.82422 56.3672 6.78516C56.7734 6.74609 57.0938 6.71875 57.3281 6.70312C58.0312 6.64062 58.6016 6.60938 59.0391 6.60938C59.4844 6.60938 59.9414 6.64453 60.4102 6.71484C60.8789 6.78516 61.293 6.90625 61.6523 7.07812C62.4414 7.45312 62.8359 8.03516 62.8359 8.82422C62.8359 9.45703 62.5781 10.0469 62.0625 10.5938C61.5781 11.1094 61.0391 11.4492 60.4453 11.6133L59.8008 11.0977Z" fill="white"/>
<path d="M48.4922 19.2539C47.4219 20.5742 45.8164 21.2344 43.6758 21.2344C41.6133 21.2344 40 20.5664 38.8359 19.2305C37.7188 17.9414 37.1602 16.2383 37.1602 14.1211C37.1602 11.9414 37.7812 10.1406 39.0234 8.71875C40.2578 7.3125 41.8398 6.60938 43.7695 6.60938C45.2461 6.60938 46.3984 6.92188 47.2266 7.54688C48.0156 8.13281 48.4102 8.9375 48.4102 9.96094C48.4102 11.2812 47.7695 12.3945 46.4883 13.3008C44.9961 14.3555 42.7383 14.8945 39.7148 14.918C39.9883 18.1133 41.4336 19.7109 44.0508 19.7109C45.6914 19.7109 46.9492 19.3359 47.8242 18.5859L48.4922 19.2539ZM39.6797 13.6641C42.4609 13.6094 44.3438 12.9492 45.3281 11.6836C45.6875 11.2148 45.8672 10.6328 45.8672 9.9375C45.8672 9.03125 45.4766 8.40625 44.6953 8.0625C44.3906 7.92969 44.0117 7.86328 43.5586 7.86328C43.1055 7.86328 42.7031 7.94531 42.3516 8.10938C42 8.26562 41.6836 8.48438 41.4023 8.76562C41.1211 9.03906 40.875 9.36328 40.6641 9.73828C40.4531 10.1055 40.2773 10.5039 40.1367 10.9336C39.8477 11.8164 39.6953 12.7266 39.6797 13.6641Z" fill="white"/>
<path d="M24.1523 9.28125C24.8555 7.89844 26.1562 6.72656 28.0547 5.76562C29.4141 6.49219 30.4453 7.28516 31.1484 8.14453C32.2969 9.55078 32.9922 11.6016 33.2344 14.2969C33.3125 15.2422 33.3516 16.1523 33.3516 17.0273C33.3516 17.9023 33.3633 18.4961 33.3867 18.8086C33.418 19.1211 33.4844 19.3555 33.5859 19.5117C33.6875 19.668 33.832 19.7734 34.0195 19.8281C34.2148 19.875 34.4062 19.9141 34.5938 19.9453C34.7891 19.9766 34.9258 19.9961 35.0039 20.0039C35.0898 20.0039 35.1719 20.0117 35.25 20.0273V21H28.8867V20.0273C29.332 19.9727 29.6875 19.9219 29.9531 19.875C30.2188 19.8203 30.4219 19.7227 30.5625 19.582C30.7891 19.3555 30.9023 18.7266 30.9023 17.6953V16.3242C30.9023 14.5508 30.8594 13.3164 30.7734 12.6211C30.6875 11.918 30.5781 11.3438 30.4453 10.8984C30.3203 10.4531 30.1484 10.0312 29.9297 9.63281C29.5156 8.89062 28.8555 8.15234 27.9492 7.41797C26.7852 8.12891 25.9219 8.85938 25.3594 9.60938C24.5547 10.6875 24.1523 12.0195 24.1523 13.6055V17.5781C24.1523 18.1172 24.168 18.5391 24.1992 18.8438C24.2305 19.1406 24.3125 19.3672 24.4453 19.5234C24.5859 19.6797 24.7891 19.7891 25.0547 19.8516C25.3281 19.9062 25.7031 19.9648 26.1797 20.0273V21H19.7461V20.0391L19.7695 20.0273C20.2305 19.9727 20.5938 19.918 20.8594 19.8633C21.125 19.8008 21.3242 19.6992 21.457 19.5586C21.6602 19.3398 21.7617 18.8008 21.7617 17.9414V3.73828C21.7617 2.87109 21.668 2.35156 21.4805 2.17969C21.3008 2.00781 21.0781 1.89844 20.8125 1.85156C20.5469 1.79688 20.1914 1.75 19.7461 1.71094V0.726562H26.1797V1.71094C25.7422 1.75781 25.3906 1.80469 25.125 1.85156C24.8594 1.89844 24.6562 1.98438 24.5156 2.10938C24.2734 2.3125 24.1523 2.85547 24.1523 3.73828V9.28125Z" fill="white"/>
<path d="M14.7305 8.10938C14.8945 7.22656 14.9766 6.58203 14.9766 6.17578C14.9766 5.76172 14.9258 5.44141 14.8242 5.21484C14.7305 4.98047 14.5703 4.79688 14.3438 4.66406C13.9531 4.42969 13.2109 4.3125 12.1172 4.3125H10.1367V17.8477C10.1367 18.3008 10.1641 18.6562 10.2188 18.9141C10.2734 19.1641 10.4062 19.3555 10.6172 19.4883C10.8281 19.6211 11.1406 19.7188 11.5547 19.7812C11.9766 19.8438 12.5508 19.9102 13.2773 19.9805V21H4.72266V19.9805C6.10547 19.8477 6.92188 19.6992 7.17188 19.5352C7.42969 19.3711 7.58984 19.1641 7.65234 18.9141C7.72266 18.6562 7.75781 18.3008 7.75781 17.8477V4.3125H5.50781C4.10156 4.3125 3.08594 5 2.46094 6.375C2.26562 6.79688 2.07031 7.25 1.875 7.73438L1.73438 8.09766H0.585938L1.89844 3.07031H17.0859L15.8555 8.10938H14.7305Z" fill="white"/>
</svg>
